<svg xmlns="http://www.w3.org/2000/svg" viewBox="0 0 26.806 26.806"><defs><style>.a{fill:#5c5c5c;}.b{fill:none;}</style></defs><path class="a" d="M7.7,19.87A2.234,2.234,0,1,0,9.935,22.1,2.231,2.231,0,0,0,7.7,19.87ZM1,2V4.234H3.234l4.021,8.477L5.747,15.448a2.159,2.159,0,0,0-.279,1.072A2.24,2.24,0,0,0,7.7,18.754H21.1V16.52H8.171a.277.277,0,0,1-.279-.279l.034-.134L8.93,14.286h8.321a2.223,2.223,0,0,0,1.955-1.15l4-7.249a1.091,1.091,0,0,0,.134-.536,1.12,1.12,0,0,0-1.117-1.117H5.7L4.652,2H1ZM18.87,19.87A2.234,2.234,0,1,0,21.1,22.1,2.231,2.231,0,0,0,18.87,19.87Z" transform="translate(0.117 0.234)"/><path class="b" d="M0,0H26.806V26.806H0Z"/></svg>