<svg xmlns="http://www.w3.org/2000/svg" viewBox="0 0 25.592 25.792"><g transform="translate(14.667 2.406)"><path d="M68.686,87.134a1,1,0,0,1-.735-.267.969.969,0,0,1,0-1.4l5.412-5.412a.992.992,0,0,1,1.4,1.4l-5.412,5.412A1.021,1.021,0,0,1,68.686,87.134Z" transform="translate(-67.65 -78.447)"/><path d="M72.8,83.279a1.028,1.028,0,0,1-1-1V78.8a1.028,1.028,0,0,1,1-1h0a1.028,1.028,0,0,1,1,1v3.475a1.028,1.028,0,0,1-1,1Z" transform="translate(-69.027 -77.8)"/><path d="M77.177,85.9H73.7a1,1,0,0,1,0-2h3.475a1,1,0,0,1,0,2Z" transform="translate(-69.326 -79.824)"/></g><path d="M62.378,96.156a4.878,4.878,0,1,1,4.878-4.878A4.905,4.905,0,0,1,62.378,96.156Zm0-7.684a2.873,2.873,0,1,0,2.873,2.873A2.852,2.852,0,0,0,62.378,88.471Z" transform="translate(-49.615 -78.248)"/><g transform="translate(15.903 9.388)"><path d="M78.187,94.4H70.5a1,1,0,0,1,0-2h7.684a1,1,0,1,1,0,2Z" transform="translate(-69.5 -89.627)"/><path d="M76.786,92.694a1,1,0,0,1-.735-.267.969.969,0,0,1,0-1.4l2.405-2.472a.992.992,0,1,1,1.4,1.4l-2.406,2.472A.775.775,0,0,1,76.786,92.694Z" transform="translate(-71.574 -88.25)"/><path d="M79.191,97.694a1,1,0,0,1-.735-.267l-2.405-2.472a.992.992,0,0,1,1.4-1.4l2.406,2.472a.969.969,0,0,1,0,1.4A1.021,1.021,0,0,1,79.191,97.694Z" transform="translate(-71.574 -89.909)"/></g><g transform="translate(14.734 15.135)"><path d="M74.2,104.234a1,1,0,0,1-.735-.267l-5.412-5.412a.992.992,0,1,1,1.4-1.4l5.412,5.412a.969.969,0,0,1,0,1.4A.775.775,0,0,1,74.2,104.234Z" transform="translate(-67.75 -96.85)"/><path d="M73.6,102.9a1,1,0,1,1,0-2h3.475a1,1,0,0,1,0,2Z" transform="translate(-69.359 -98.194)"/><path d="M72.7,107.279h0a1.028,1.028,0,0,1-1-1V102.8a1,1,0,0,1,2,0v3.475A1.028,1.028,0,0,1,72.7,107.279Z" transform="translate(-69.061 -98.492)"/></g><g transform="translate(8.787 16.104)"><path d="M64.3,107.989a1.028,1.028,0,0,1-1-1V99.3a1,1,0,0,1,2,0v7.684A1.028,1.028,0,0,1,64.3,107.989Z" transform="translate(-60.327 -98.3)"/><path d="M67.258,109.127a1,1,0,0,1-.735-.267l-2.472-2.406a.992.992,0,0,1,1.4-1.4l2.472,2.405a.969.969,0,0,1,0,1.4A1.021,1.021,0,0,1,67.258,109.127Z" transform="translate(-60.476 -100.44)"/><path d="M59.886,109.127a1,1,0,0,1-.735-.267.969.969,0,0,1,0-1.4l2.472-2.405a.992.992,0,1,1,1.4,1.4l-2.472,2.406A1.187,1.187,0,0,1,59.886,109.127Z" transform="translate(-58.85 -100.44)"/></g><g transform="translate(2.071 14.734)"><path d="M51.886,103.634a1,1,0,0,1-.735-.267.969.969,0,0,1,0-1.4l5.412-5.412a.992.992,0,0,1,1.4,1.4l-5.412,5.412A1.021,1.021,0,0,1,51.886,103.634Z" transform="translate(-49.48 -96.25)"/><path d="M56,106.479a1.028,1.028,0,0,1-1-1V102a1.028,1.028,0,0,1,1-1h0a1.028,1.028,0,0,1,1,1v3.475a1.028,1.028,0,0,1-1,1Z" transform="translate(-50.857 -97.826)"/><path d="M53.277,102.1H49.8a1.028,1.028,0,0,1-1-1,1.077,1.077,0,0,1,1-1h3.475a1.028,1.028,0,0,1,1,1A.984.984,0,0,1,53.277,102.1Z" transform="translate(-48.8 -97.527)"/></g><g transform="translate(0 8.653)"><path d="M54.387,93.5H46.7a1,1,0,1,1,0-2H54.32a1.028,1.028,0,0,1,1,1A.971.971,0,0,1,54.387,93.5Z" transform="translate(-45.7 -88.593)"/><path d="M48.286,96.594a1,1,0,0,1-.735-.267.969.969,0,0,1,0-1.4l2.406-2.472a.992.992,0,0,1,1.4,1.4l-2.405,2.472A1.187,1.187,0,0,1,48.286,96.594Z" transform="translate(-46.214 -88.809)"/><path d="M50.691,91.594a1,1,0,0,1-.735-.267l-2.406-2.472a.992.992,0,0,1,1.4-1.4l2.406,2.472a.969.969,0,0,1,0,1.4A.775.775,0,0,1,50.691,91.594Z" transform="translate(-46.214 -87.15)"/></g><g transform="translate(2.138 1.871)"><path d="M57.2,86.534a1,1,0,0,1-.735-.267l-5.412-5.412a.992.992,0,1,1,1.4-1.4l5.412,5.412a.969.969,0,0,1,0,1.4A1.021,1.021,0,0,1,57.2,86.534Z" transform="translate(-49.514 -77.713)"/><path d="M49.9,85.1a1,1,0,1,1,0-2h3.475a1,1,0,1,1,0,2Z" transform="translate(-48.9 -79.024)"/><path d="M56,82.479h0a1.028,1.028,0,0,1-1-1V78a1,1,0,0,1,2,0v3.475A.984.984,0,0,1,56,82.479Z" transform="translate(-50.924 -77)"/></g><g transform="translate(8.987 0)"><path d="M64.4,83.889a1.028,1.028,0,0,1-1-1V75.2a1,1,0,0,1,2,0V82.82A1.043,1.043,0,0,1,64.4,83.889Z" transform="translate(-60.56 -74.2)"/><path d="M62.658,80.227a1,1,0,0,1-.735-.267l-2.472-2.405a.992.992,0,1,1,1.4-1.4l2.472,2.406a.969.969,0,0,1,0,1.4A1.021,1.021,0,0,1,62.658,80.227Z" transform="translate(-59.15 -74.747)"/><path d="M65.086,80.227a1,1,0,0,1-.735-.267.969.969,0,0,1,0-1.4l2.472-2.406a.992.992,0,0,1,1.4,1.4l-2.472,2.405A1.021,1.021,0,0,1,65.086,80.227Z" transform="translate(-60.776 -74.747)"/></g></svg>