<svg xmlns="http://www.w3.org/2000/svg" viewBox="0 0 55 55"><defs><style>.a{fill:#b1b1b1;}.b{fill:#fff;}</style></defs><g transform="translate(-3827 -6775)"><circle class="a" cx="27.5" cy="27.5" r="27.5" transform="translate(3827 6775)"/><g transform="translate(3842.164 6790.164)"><path class="b" d="M10.284,99.73H5.325a.4.4,0,0,0-.4.4v15.929a.4.4,0,0,0,.4.4h4.958a.4.4,0,0,0,.4-.4V100.128A.4.4,0,0,0,10.284,99.73Z" transform="translate(-4.534 -91.811)"/><path class="b" d="M3.272.341A3.269,3.269,0,1,0,6.541,3.609,3.274,3.274,0,0,0,3.272.341Z" transform="translate(0 -0.341)"/><path class="b" d="M116.078,94.761a5.824,5.824,0,0,0-4.357,1.829V95.555a.4.4,0,0,0-.4-.4h-4.749a.4.4,0,0,0-.4.4v15.929a.4.4,0,0,0,.4.4h4.948a.4.4,0,0,0,.4-.4V103.6c0-2.656.721-3.69,2.573-3.69,2.016,0,2.176,1.659,2.176,3.827v7.745a.4.4,0,0,0,.4.4h4.949a.4.4,0,0,0,.4-.4v-8.737C122.416,98.8,121.663,94.761,116.078,94.761Z" transform="translate(-97.717 -87.238)"/></g></g></svg>