<svg xmlns="http://www.w3.org/2000/svg" viewBox="0 0 31.768 31.773"><path d="M33.742,958.7c-.174.008-.345.021-.52.042a8.719,8.719,0,0,0-4.193,1.837.775.775,0,1,0,.945,1.221,7.3,7.3,0,0,1,3.44-1.529,2.847,2.847,0,0,1,2.452.669,3.058,3.058,0,0,1,.584,2.9,8.773,8.773,0,0,1-6.179,6.189,3.058,3.058,0,0,1-2.9-.594,2.171,2.171,0,0,1-.435-.605.775.775,0,1,0-1.391.658,3.751,3.751,0,0,0,.733,1.04,3.886,3.886,0,0,0,1.879,1.019c-.034.04-.068.079-.106.117a2.057,2.057,0,1,1,0-2.909,2.1,2.1,0,0,1,.223.265.776.776,0,1,0,1.263-.9,3.639,3.639,0,0,0-.393-.456,3.627,3.627,0,0,0-5.106,0,3.611,3.611,0,0,0,5.106,5.106,3.581,3.581,0,0,0,.754-1.115,6.485,6.485,0,0,0,.69-.106,8.4,8.4,0,0,0,2.208-.828v4.215L19.124,988.606,8.211,977.671l13.663-13.663h6.975l3.418,3.408a.775.775,0,1,0,1.093-1.093l-3.631-3.631a.775.775,0,0,0-.552-.234H21.555a.775.775,0,0,0-.552.234L6.565,977.13a.775.775,0,0,0,0,1.093L18.583,990.24a.775.775,0,0,0,1.093,0L34.114,975.8a.775.775,0,0,0,.234-.552v-5.563a11.134,11.134,0,0,0,.934-.828,9.625,9.625,0,0,0,2.686-4.692,4.625,4.625,0,0,0-1.009-4.321,4.1,4.1,0,0,0-2.7-1.147,4.771,4.771,0,0,0-.52,0Zm-17.5,15.213a.775.775,0,0,0-.467,1.327l5.786,5.786a.775.775,0,1,0,1.093-1.093l-5.786-5.786A.775.775,0,0,0,16.247,973.913Z" transform="translate(-6.34 -958.693)"/></svg>