<svg xmlns="http://www.w3.org/2000/svg" viewBox="0 0 55 55"><defs><style>.a{fill:#b1b1b1;}.b{fill:#fff;}</style></defs><g transform="translate(-4124 -6457)"><circle class="a" cx="27.5" cy="27.5" r="27.5" transform="translate(4124 6457)"/><path class="b" d="M29.8,50.866a12.736,12.736,0,0,1-3.52.965,6.074,6.074,0,0,0,2.687-3.376,12.208,12.208,0,0,1-3.874,1.479A6.108,6.108,0,0,0,14.524,54.11a6.29,6.29,0,0,0,.142,1.393,17.29,17.29,0,0,1-12.591-6.39,6.11,6.11,0,0,0,1.877,8.164,6.032,6.032,0,0,1-2.76-.752v.067a6.137,6.137,0,0,0,4.894,6,6.1,6.1,0,0,1-1.6.2,5.4,5.4,0,0,1-1.156-.1,6.167,6.167,0,0,0,5.708,4.255,12.274,12.274,0,0,1-7.574,2.605A11.443,11.443,0,0,1,0,69.468,17.2,17.2,0,0,0,9.371,72.21c11.241,0,17.386-9.311,17.386-17.383,0-.27-.009-.531-.022-.79A12.186,12.186,0,0,0,29.8,50.866Z" transform="translate(4136.593 6424.42)"/></g></svg>