<svg xmlns="http://www.w3.org/2000/svg" viewBox="0 0 55 55"><defs><style>.a{fill:#b1b1b1;}.b{fill:#fff;}</style></defs><g transform="translate(-4669 -6746)"><circle class="a" cx="27.5" cy="27.5" r="27.5" transform="translate(4669 6746)"/><path class="b" d="M21.937,67.393H5.75A5.75,5.75,0,0,0,0,73.143v8.091a5.75,5.75,0,0,0,5.75,5.75H21.937a5.75,5.75,0,0,0,5.75-5.75V73.143A5.75,5.75,0,0,0,21.937,67.393Zm-3.889,10.19-7.571,3.611a.3.3,0,0,1-.435-.274V73.472a.3.3,0,0,1,.441-.271l7.571,3.837A.3.3,0,0,1,18.048,77.583Z" transform="translate(4682.622 6696.341)"/></g></svg>